<?xml version="1.0" standalone="no"?>
<!DOCTYPE svg PUBLIC "-//W3C//DTD SVG 20010904//EN"
 "http://www.w3.org/TR/2001/REC-SVG-20010904/DTD/svg10.dtd">
<svg version="1.0" xmlns="http://www.w3.org/2000/svg"
 width="266.000000pt" height="164.000000pt" viewBox="0 0 266.000000 164.000000"
 preserveAspectRatio="xMidYMid meet">

<g transform="translate(0.000000,164.000000) scale(0.100000,-0.100000)"
fill="#000000" stroke="none">
<path d="M1084 1410 c-34 -13 -39 -30 -10 -30 35 0 89 -57 112 -117 10 -26 24
-59 31 -72 11 -23 13 -24 19 -5 27 75 66 144 96 170 32 29 34 32 17 42 -10 7
-25 9 -32 6 -19 -7 -62 -87 -78 -144 l-12 -45 -12 45 c-17 66 -44 118 -73 140
-27 22 -28 22 -58 10z"/>
<path d="M733 1272 c-99 -36 -167 -97 -211 -192 -22 -49 -21 -223 2 -309 67
-247 266 -446 513 -513 116 -31 278 -29 395 6 232 69 425 262 489 489 17 61
23 109 24 187 0 95 -3 110 -28 162 -30 62 -83 115 -149 150 -37 20 -58 23
-143 23 -92 0 -104 -2 -153 -29 -59 -33 -100 -71 -47 -44 17 9 56 21 89 28 72
15 125 2 193 -46 125 -89 152 -238 79 -440 -42 -116 -151 -241 -266 -307 -139
-79 -337 -95 -487 -39 -185 68 -312 198 -370 377 -51 159 -33 297 48 375 79
76 203 101 294 61 59 -26 67 -26 35 0 -89 71 -211 96 -307 61z"/>
</g>
</svg>
